<mxfile host="app.diagrams.net" modified="2024-07-24T00:45:53.738Z" agent="Mozilla/5.0 (Windows NT 10.0; Win64; x64) AppleWebKit/537.36 (KHTML, like Gecko) Chrome/126.0.0.0 Safari/537.36" etag="3H3KavhsCjf0cPwlq7Y3" version="24.7.1" type="device">
  <diagram name="페이지-1" id="5GgJ3suZmrngVTX2KaLc">
    <mxGraphModel dx="1820" dy="1558" grid="0" gridSize="10" guides="1" tooltips="1" connect="1" arrows="1" fold="1" page="0" pageScale="1" pageWidth="827" pageHeight="1169" math="0" shadow="0">
      <root>
        <mxCell id="0" />
        <mxCell id="1" parent="0" />
        <mxCell id="XtRkeNVS0C_kiaQZF2_L-6" value="학번" style="ellipse;whiteSpace=wrap;html=1;align=center;fontStyle=4;flipH=1;labelBackgroundColor=none;" parent="1" vertex="1">
          <mxGeometry x="-216" y="-179" width="100" height="40" as="geometry" />
        </mxCell>
        <mxCell id="XtRkeNVS0C_kiaQZF2_L-7" value="학생이름" style="ellipse;whiteSpace=wrap;html=1;align=center;flipH=1;labelBackgroundColor=none;" parent="1" vertex="1">
          <mxGeometry x="-106" y="-179" width="100" height="40" as="geometry" />
        </mxCell>
        <mxCell id="XtRkeNVS0C_kiaQZF2_L-9" value="학과" style="ellipse;whiteSpace=wrap;html=1;align=center;flipH=1;labelBackgroundColor=none;" parent="1" vertex="1">
          <mxGeometry x="2" y="-179" width="100" height="40" as="geometry" />
        </mxCell>
        <mxCell id="XtRkeNVS0C_kiaQZF2_L-10" value="학년" style="ellipse;whiteSpace=wrap;html=1;align=center;flipH=1;labelBackgroundColor=none;" parent="1" vertex="1">
          <mxGeometry x="108" y="-179" width="100" height="40" as="geometry" />
        </mxCell>
        <mxCell id="XtRkeNVS0C_kiaQZF2_L-11" value="전화번호" style="ellipse;whiteSpace=wrap;html=1;align=center;flipH=1;labelBackgroundColor=none;" parent="1" vertex="1">
          <mxGeometry x="216" y="-179" width="100" height="40" as="geometry" />
        </mxCell>
        <mxCell id="XtRkeNVS0C_kiaQZF2_L-12" value="주소" style="ellipse;whiteSpace=wrap;html=1;align=center;flipH=1;labelBackgroundColor=none;" parent="1" vertex="1">
          <mxGeometry x="323" y="-179" width="100" height="40" as="geometry" />
        </mxCell>
        <mxCell id="XtRkeNVS0C_kiaQZF2_L-19" style="edgeStyle=none;curved=1;rounded=0;orthogonalLoop=1;jettySize=auto;html=1;fontSize=12;startSize=8;endSize=8;labelBackgroundColor=none;fontColor=default;" parent="1" source="XtRkeNVS0C_kiaQZF2_L-17" target="XtRkeNVS0C_kiaQZF2_L-7" edge="1">
          <mxGeometry relative="1" as="geometry" />
        </mxCell>
        <mxCell id="XtRkeNVS0C_kiaQZF2_L-20" style="edgeStyle=none;curved=1;rounded=0;orthogonalLoop=1;jettySize=auto;html=1;fontSize=12;startSize=8;endSize=8;labelBackgroundColor=none;fontColor=default;" parent="1" source="XtRkeNVS0C_kiaQZF2_L-17" target="XtRkeNVS0C_kiaQZF2_L-9" edge="1">
          <mxGeometry relative="1" as="geometry" />
        </mxCell>
        <mxCell id="XtRkeNVS0C_kiaQZF2_L-21" style="edgeStyle=none;curved=1;rounded=0;orthogonalLoop=1;jettySize=auto;html=1;fontSize=12;startSize=8;endSize=8;labelBackgroundColor=none;fontColor=default;" parent="1" source="XtRkeNVS0C_kiaQZF2_L-17" target="XtRkeNVS0C_kiaQZF2_L-10" edge="1">
          <mxGeometry relative="1" as="geometry" />
        </mxCell>
        <mxCell id="XtRkeNVS0C_kiaQZF2_L-22" style="edgeStyle=none;curved=1;rounded=0;orthogonalLoop=1;jettySize=auto;html=1;fontSize=12;startSize=8;endSize=8;labelBackgroundColor=none;fontColor=default;" parent="1" source="XtRkeNVS0C_kiaQZF2_L-17" target="XtRkeNVS0C_kiaQZF2_L-11" edge="1">
          <mxGeometry relative="1" as="geometry" />
        </mxCell>
        <mxCell id="XtRkeNVS0C_kiaQZF2_L-23" style="edgeStyle=none;curved=1;rounded=0;orthogonalLoop=1;jettySize=auto;html=1;entryX=0.5;entryY=0;entryDx=0;entryDy=0;fontSize=12;startSize=8;endSize=8;labelBackgroundColor=none;fontColor=default;" parent="1" source="XtRkeNVS0C_kiaQZF2_L-17" target="XtRkeNVS0C_kiaQZF2_L-12" edge="1">
          <mxGeometry relative="1" as="geometry" />
        </mxCell>
        <mxCell id="XtRkeNVS0C_kiaQZF2_L-17" value="학생정보" style="rounded=1;arcSize=25;whiteSpace=wrap;html=1;align=center;labelBackgroundColor=none;fillColor=#d0cee2;strokeColor=#56517e;" parent="1" vertex="1">
          <mxGeometry x="21" y="-358" width="150" height="54" as="geometry" />
        </mxCell>
        <mxCell id="XtRkeNVS0C_kiaQZF2_L-18" style="rounded=0;orthogonalLoop=1;jettySize=auto;html=1;entryX=0.56;entryY=0.025;entryDx=0;entryDy=0;entryPerimeter=0;fontSize=12;startSize=8;endSize=8;labelBackgroundColor=none;fontColor=default;" parent="1" source="XtRkeNVS0C_kiaQZF2_L-17" target="XtRkeNVS0C_kiaQZF2_L-6" edge="1">
          <mxGeometry relative="1" as="geometry" />
        </mxCell>
        <mxCell id="Zvrs0y6znYgB0X6T7Zx9-7" style="rounded=0;orthogonalLoop=1;jettySize=auto;html=1;" parent="1" source="Zvrs0y6znYgB0X6T7Zx9-4" target="Zvrs0y6znYgB0X6T7Zx9-6" edge="1">
          <mxGeometry relative="1" as="geometry" />
        </mxCell>
        <mxCell id="Zvrs0y6znYgB0X6T7Zx9-8" style="rounded=0;orthogonalLoop=1;jettySize=auto;html=1;" parent="1" source="Zvrs0y6znYgB0X6T7Zx9-4" target="Zvrs0y6znYgB0X6T7Zx9-5" edge="1">
          <mxGeometry relative="1" as="geometry" />
        </mxCell>
        <mxCell id="Zvrs0y6znYgB0X6T7Zx9-4" value="과목정보" style="whiteSpace=wrap;html=1;align=center;rounded=1;fillColor=#b1ddf0;strokeColor=#10739e;" parent="1" vertex="1">
          <mxGeometry x="530" y="-351" width="100" height="40" as="geometry" />
        </mxCell>
        <mxCell id="Zvrs0y6znYgB0X6T7Zx9-5" value="과목명" style="ellipse;whiteSpace=wrap;html=1;align=center;" parent="1" vertex="1">
          <mxGeometry x="609" y="-179" width="100" height="40" as="geometry" />
        </mxCell>
        <mxCell id="Zvrs0y6znYgB0X6T7Zx9-6" value="과목코드" style="ellipse;whiteSpace=wrap;html=1;align=center;fontStyle=4;" parent="1" vertex="1">
          <mxGeometry x="472" y="-179" width="100" height="40" as="geometry" />
        </mxCell>
        <mxCell id="Zvrs0y6znYgB0X6T7Zx9-10" value="수강신청" style="shape=rhombus;perimeter=rhombusPerimeter;whiteSpace=wrap;html=1;align=center;" parent="1" vertex="1">
          <mxGeometry x="281" y="-493" width="120" height="60" as="geometry" />
        </mxCell>
        <mxCell id="Zvrs0y6znYgB0X6T7Zx9-11" value="" style="edgeStyle=entityRelationEdgeStyle;fontSize=12;html=1;endArrow=ERoneToMany;rounded=0;exitX=1;exitY=0.5;exitDx=0;exitDy=0;" parent="1" source="XtRkeNVS0C_kiaQZF2_L-17" target="Zvrs0y6znYgB0X6T7Zx9-10" edge="1">
          <mxGeometry width="100" height="100" relative="1" as="geometry">
            <mxPoint x="96" y="-358" as="sourcePoint" />
            <mxPoint x="344" y="-282" as="targetPoint" />
            <Array as="points">
              <mxPoint x="110" y="-401" />
              <mxPoint x="126" y="-444" />
              <mxPoint x="130" y="-441" />
            </Array>
          </mxGeometry>
        </mxCell>
        <mxCell id="Zvrs0y6znYgB0X6T7Zx9-12" value="" style="edgeStyle=entityRelationEdgeStyle;fontSize=12;html=1;endArrow=ERoneToMany;rounded=0;exitX=0;exitY=0.5;exitDx=0;exitDy=0;" parent="1" source="Zvrs0y6znYgB0X6T7Zx9-4" target="Zvrs0y6znYgB0X6T7Zx9-10" edge="1">
          <mxGeometry width="100" height="100" relative="1" as="geometry">
            <mxPoint x="244" y="-182" as="sourcePoint" />
            <mxPoint x="438" y="-446" as="targetPoint" />
          </mxGeometry>
        </mxCell>
        <mxCell id="jJdWzN7uTufupUDOGxtv-3" style="edgeStyle=orthogonalEdgeStyle;rounded=0;orthogonalLoop=1;jettySize=auto;html=1;exitX=0.5;exitY=1;exitDx=0;exitDy=0;entryX=0.5;entryY=0;entryDx=0;entryDy=0;" edge="1" parent="1" source="Zvrs0y6znYgB0X6T7Zx9-13" target="jJdWzN7uTufupUDOGxtv-2">
          <mxGeometry relative="1" as="geometry" />
        </mxCell>
        <mxCell id="Zvrs0y6znYgB0X6T7Zx9-13" value="학생성적" style="shape=rhombus;perimeter=rhombusPerimeter;whiteSpace=wrap;html=1;align=center;" parent="1" vertex="1">
          <mxGeometry x="281" y="-361" width="120" height="60" as="geometry" />
        </mxCell>
        <mxCell id="Zvrs0y6znYgB0X6T7Zx9-14" value="" style="edgeStyle=entityRelationEdgeStyle;fontSize=12;html=1;endArrow=ERoneToMany;rounded=0;entryX=0;entryY=0.5;entryDx=0;entryDy=0;" parent="1" source="XtRkeNVS0C_kiaQZF2_L-17" target="Zvrs0y6znYgB0X6T7Zx9-13" edge="1">
          <mxGeometry width="100" height="100" relative="1" as="geometry">
            <mxPoint x="224" y="-182" as="sourcePoint" />
            <mxPoint x="324" y="-282" as="targetPoint" />
          </mxGeometry>
        </mxCell>
        <mxCell id="Zvrs0y6znYgB0X6T7Zx9-15" value="" style="edgeStyle=entityRelationEdgeStyle;fontSize=12;html=1;endArrow=ERoneToMany;rounded=0;entryX=1;entryY=0.5;entryDx=0;entryDy=0;exitX=0;exitY=0.5;exitDx=0;exitDy=0;" parent="1" source="Zvrs0y6znYgB0X6T7Zx9-4" target="Zvrs0y6znYgB0X6T7Zx9-13" edge="1">
          <mxGeometry width="100" height="100" relative="1" as="geometry">
            <mxPoint x="224" y="-182" as="sourcePoint" />
            <mxPoint x="324" y="-282" as="targetPoint" />
          </mxGeometry>
        </mxCell>
        <mxCell id="jJdWzN7uTufupUDOGxtv-2" value="성적" style="ellipse;whiteSpace=wrap;html=1;align=center;" vertex="1" parent="1">
          <mxGeometry x="291" y="-277" width="100" height="40" as="geometry" />
        </mxCell>
      </root>
    </mxGraphModel>
  </diagram>
</mxfile>
